<svg width="90" height="91" viewBox="0 0 90 91" fill="none" xmlns="http://www.w3.org/2000/svg">
<g filter="url(#filter0_d_514_5647)">
<path d="M4 40.3158C4 21.4596 4 12.0315 9.85786 6.17366C15.7157 0.315796 25.1438 0.315796 44 0.315796H46C64.8562 0.315796 74.2843 0.315796 80.1421 6.17366C86 12.0315 86 21.4596 86 40.3158V42.3158C86 61.172 86 70.6001 80.1421 76.4579C74.2843 82.3158 64.8562 82.3158 46 82.3158H44C25.1438 82.3158 15.7157 82.3158 9.85786 76.4579C4 70.6001 4 61.172 4 42.3158V40.3158Z" fill="#F8D57E" fill-opacity="0.2" shape-rendering="crispEdges"/>
<path opacity="0.2" d="M40.8 52.8658L33.45 45.5158L30.218 54.4244C30.1286 54.6582 30.1088 54.9128 30.1611 55.1575C30.2133 55.4023 30.3352 55.6267 30.5122 55.8037C30.6891 55.9806 30.9135 56.1026 31.1583 56.1548C31.403 56.207 31.6576 56.1872 31.8914 56.0978L40.8 52.8658Z" fill="#F8D57E"/>
<path opacity="0.2" d="M56.6207 45.1498L56.6208 45.15C56.7705 45.2983 56.8802 45.4821 56.9397 45.6842C56.9993 45.8863 57.0069 46.1001 56.9617 46.3059C56.9164 46.5117 56.82 46.7027 56.6812 46.8612C56.5423 47.0197 56.3657 47.1405 56.1677 47.2125L49.4786 49.6434L36.6723 36.8372L39.1033 30.1481C39.1752 29.95 39.2961 29.7734 39.4546 29.6346C39.6131 29.4958 39.8041 29.3993 40.0099 29.3541C40.2157 29.3089 40.4295 29.3165 40.6316 29.376C40.8337 29.4356 41.0174 29.5453 41.1658 29.6949L41.166 29.6951L56.6207 45.1498Z" fill="#F8D57E" stroke="#F8D57E" stroke-width="0.125"/>
<path d="M30.218 54.4244L39.0445 30.1267C39.1201 29.9188 39.247 29.7334 39.4134 29.5876C39.5798 29.4419 39.7804 29.3406 39.9965 29.2931C40.2125 29.2456 40.4371 29.2535 40.6493 29.3161C40.8615 29.3787 41.0544 29.4938 41.2102 29.6509L56.6648 45.1056C56.8219 45.2614 56.9371 45.4543 56.9997 45.6665C57.0622 45.8787 57.0702 46.1032 57.0227 46.3193C56.9752 46.5354 56.8739 46.7359 56.7282 46.9024C56.5824 47.0688 56.397 47.1957 56.1891 47.2712L31.8914 56.0978C31.6576 56.1872 31.403 56.2069 31.1583 56.1547C30.9135 56.1025 30.6891 55.9806 30.5122 55.8036C30.3352 55.6267 30.2133 55.4023 30.1611 55.1575C30.1088 54.9128 30.1286 54.6581 30.218 54.4244V54.4244Z" stroke="#F8D57E" stroke-width="2" stroke-linecap="round" stroke-linejoin="round"/>
<path d="M51.5625 32.1283C51.5625 32.1283 51.5625 28.1908 55.5 28.1908C59.4375 28.1908 59.4375 24.2533 59.4375 24.2533" stroke="#F8D57E" stroke-width="2" stroke-linecap="round" stroke-linejoin="round"/>
<path d="M40.8 52.8658L33.45 45.5158" stroke="#F8D57E" stroke-width="2" stroke-linecap="round" stroke-linejoin="round"/>
<path d="M47.625 22.9408V26.8783" stroke="#F8D57E" stroke-width="2" stroke-linecap="round" stroke-linejoin="round"/>
<path d="M59.4375 38.6908L62.0625 41.3158" stroke="#F8D57E" stroke-width="2" stroke-linecap="round" stroke-linejoin="round"/>
<path d="M59.4375 33.4408L63.375 32.1283" stroke="#F8D57E" stroke-width="2" stroke-linecap="round" stroke-linejoin="round"/>
<path d="M36.6 36.8533L49.4625 49.7158" stroke="#F8D57E" stroke-width="2" stroke-linecap="round" stroke-linejoin="round"/>
</g>
<defs>
<filter id="filter0_d_514_5647" x="0" y="0.315796" width="90" height="90" filterUnits="userSpaceOnUse" color-interpolation-filters="sRGB">
<feFlood flood-opacity="0" result="BackgroundImageFix"/>
<feColorMatrix in="SourceAlpha" type="matrix" values="0 0 0 0 0 0 0 0 0 0 0 0 0 0 0 0 0 0 127 0" result="hardAlpha"/>
<feOffset dy="4"/>
<feGaussianBlur stdDeviation="2"/>
<feComposite in2="hardAlpha" operator="out"/>
<feColorMatrix type="matrix" values="0 0 0 0 0 0 0 0 0 0 0 0 0 0 0 0 0 0 0.25 0"/>
<feBlend mode="normal" in2="BackgroundImageFix" result="effect1_dropShadow_514_5647"/>
<feBlend mode="normal" in="SourceGraphic" in2="effect1_dropShadow_514_5647" result="shape"/>
</filter>
</defs>
</svg>
